<svg width="18" height="14" viewBox="0 0 18 14" fill="none" xmlns="http://www.w3.org/2000/svg">
<path id="Vector" d="M1.91406 7.2249H5.71073C6.71656 7.2249 7.39656 7.9899 7.39656 8.91073V11.0216C7.39656 11.9424 6.71656 12.7074 5.71073 12.7074H3.5999C3.15393 12.7037 2.72728 12.5249 2.41192 12.2095C2.09657 11.8942 1.91776 11.4675 1.91406 11.0216V7.2249ZM1.91406 7.2249C1.91406 3.2724 2.65073 2.60656 4.8749 1.28906M10.6124 7.2249H14.4091C15.4149 7.2249 16.0949 7.9899 16.0949 8.91073V11.0216C16.0949 11.9424 15.4149 12.7074 14.4091 12.7074H12.2982C11.8523 12.7037 11.4256 12.5249 11.1103 12.2095C10.7949 11.8942 10.6161 11.4675 10.6124 11.0216V7.2249ZM10.6124 7.2249C10.6124 3.2724 11.3491 2.60656 13.5732 1.28906" stroke="white" stroke-width="2.5" stroke-linecap="round" stroke-linejoin="round"/>
</svg>
