<svg width="4" height="4" viewBox="0 0 4 4" fill="none" xmlns="http://www.w3.org/2000/svg">
<path id="Path 19272" d="M3.41949 2.1736C3.41949 2.41886 3.34676 2.6586 3.2105 2.86252C3.07425 3.06643 2.88059 3.22538 2.65401 3.31924C2.42743 3.41309 2.1781 3.43766 1.93756 3.38981C1.69702 3.34197 1.47606 3.22387 1.30265 3.05045C1.12923 2.87703 1.01113 2.65606 0.963281 2.41552C0.915434 2.17498 0.93999 1.92565 1.03384 1.69907C1.1277 1.47249 1.28665 1.27885 1.49056 1.14259C1.69448 1.00634 1.93422 0.933594 2.17948 0.933594C2.50835 0.933594 2.82374 1.06424 3.05629 1.29679C3.28884 1.52934 3.41949 1.84473 3.41949 2.1736Z" fill="#55E6A5"/>
</svg>
