<svg width="20" height="20" viewBox="0 0 20 20" fill="none" xmlns="http://www.w3.org/2000/svg">
<g id="Frame" clip-path="url(#clip0_2916_37)">
<g id="Group">
<path id="Vector" d="M9.33744 15.0379C9.42449 15.125 9.52784 15.194 9.64159 15.2411C9.75533 15.2882 9.87725 15.3125 10.0004 15.3125C10.1235 15.3125 10.2454 15.2882 10.3591 15.2411C10.4729 15.194 10.5762 15.125 10.6633 15.0379L14.1988 11.5024C14.3746 11.3266 14.4734 11.0881 14.4734 10.8395C14.4734 10.5908 14.3746 10.3524 14.1988 10.1766C14.023 10.0007 13.7845 9.90198 13.5359 9.90198C13.2873 9.90198 13.0488 10.0007 12.873 10.1766L10.9379 12.1117V1.875C10.9379 1.62636 10.8391 1.3879 10.6633 1.21209C10.4875 1.03627 10.249 0.9375 10.0004 0.9375C9.75173 0.9375 9.51327 1.03627 9.33745 1.21209C9.16164 1.3879 9.06287 1.62636 9.06287 1.875V12.1117L7.12775 10.1766C6.95193 10.0007 6.71348 9.90198 6.46484 9.90198C6.2162 9.90198 5.97774 10.0007 5.80193 10.1766C5.62611 10.3524 5.52734 10.5908 5.52734 10.8395C5.52734 11.0881 5.62611 11.3266 5.80193 11.5024L9.33744 15.0379Z" fill="#02050A"/>
<path id="Vector_2" d="M18.125 9.0625C17.8764 9.0625 17.6379 9.16127 17.4621 9.33709C17.2863 9.5129 17.1875 9.75136 17.1875 10V17.1875H2.8125V10C2.8125 9.75136 2.71373 9.5129 2.53791 9.33709C2.3621 9.16127 2.12364 9.0625 1.875 9.0625C1.62636 9.0625 1.3879 9.16127 1.21209 9.33709C1.03627 9.5129 0.9375 9.75136 0.9375 10V17.5C0.9375 17.9144 1.10212 18.3118 1.39515 18.6049C1.68817 18.8979 2.0856 19.0625 2.5 19.0625H17.5C17.9144 19.0625 18.3118 18.8979 18.6049 18.6049C18.8979 18.3118 19.0625 17.9144 19.0625 17.5V10C19.0625 9.75136 18.9637 9.5129 18.7879 9.33709C18.6121 9.16127 18.3736 9.0625 18.125 9.0625Z" fill="#02050A"/>
</g>
</g>
<defs>
<clipPath id="clip0_2916_37">
<rect width="20" height="20" fill="white"/>
</clipPath>
</defs>
</svg>
